

The.English.Patient.1966.DVDRip.XViD.AC-3.Nordic-anoXmous

Format                           : AVI
Format/Info                      : Audio Video Interleave
File size                        : 1.37 GiB
Duration                         : 2h 35mn
Overall bit rate                 : 1 263 Kbps
Writing application              : VirtualDubMod 1.5.4.1 (build 2178/release)
Writing library                  : VirtualDubMod build 2178/release

Video
ID                               : 0
Format                           : MPEG-4 Visual
Format profile                   : Advanced Simple@L5
Format settings, BVOP            : 1
Format settings, QPel            : No
Format settings, GMC             : No warppoints
Format settings, Matrix          : Custom
Codec ID                         : XVID
Codec ID/Hint                    : XviD
Duration                         : 2h 35mn
Bit rate                         : 808 Kbps
Width                            : 640 pixels
Height                           : 352 pixels
Display aspect ratio             : 16:9
Frame rate                       : 25.000 fps
Color space                      : YUV
Chroma subsampling               : 4:2:0
Bit depth                        : 8 bits
Scan type                        : Progressive
Compression mode                 : Lossy
Bits/(Pixel*Frame)               : 0.143
Stream size                      : 896 MiB (64%)
Writing library                  : XviD 64

Audio
ID                               : 1
Format                           : AC-3
Format/Info                      : Audio Coding 3
Mode extension                   : CM (complete main)
Codec ID                         : 2000
Duration                         : 2h 35mn
Bit rate mode                    : Constant
Bit rate                         : 448 Kbps
Channel(s)                       : 6 channels
Channel positions                : Front: L C R, Side: L R, LFE
Sampling rate                    : 48.0 KHz
Bit depth                        : 16 bits
Compression mode                 : Lossy
Stream size                      : 497 MiB (35%)
Alignment                        : Split accross interleaves
Interleave, duration             : 96 ms (2.40 video frames)
Interleave, preload duration     : 96 ms
Language                         : English

                              SUB:

Complete name  : The.English.Patient.1966.DVDRip.XViD.AC-3.Nordic-anoXmous_dan.sub
Format                           : MPEG-PS
File size                        : 4.53 MiB
Duration                         : 2h 34mn
Overall bit rate                 : 4 108 bps


Complete name  : The.English.Patient.1966.DVDRip.XViD.AC-3.Nordic-anoXmous_fin.sub
Format                           : MPEG-PS
File size                        : 4.76 MiB
Duration                         : 2h 27mn
Overall bit rate                 : 4 515 bps


Complete name  : The.English.Patient.1966.DVDRip.XViD.AC-3.Nordic-anoXmous_nor.sub
Format                           : MPEG-PS
File size                        : 4.56 MiB
Duration                         : 2h 29mn
Overall bit rate                 : 4 250 bps


Complete name  : The.English.Patient.1966.DVDRip.XViD.AC-3.Nordic-anoXmous_swe.sub
Format                           : MPEG-PS
File size                        : 4.61 MiB
Duration                         : 2h 34mn
Overall bit rate                 : 4 188 bps




